<svg width="1384" height="276" viewBox="0 0 1384 276" fill="none" xmlns="http://www.w3.org/2000/svg">
<g clip-path="url(#clip0_273_2607)">
<path d="M0 8.15238H83.044V114.623H94.9116L231.807 0V88.1783L160.14 137.813L237.727 190.069V275.971L93.901 160.34H83.0152V266.177H0V8.15238Z" fill="#1E191A"/>
<path d="M684.622 167.225H665.334V266.177H582.29V8.15234C620.838 5.5309 659.386 3.57202 688.549 3.57202C829.892 3.57202 834.367 73.4578 834.367 88.1782C834.367 102.899 825.474 138.475 770.121 156.451L820.045 190.097V275.683L684.622 167.253V167.225ZM747.772 120.932V49.3176C742.083 49.6344 671.051 49.9225 665.334 50.2394V120.615C671.022 120.73 742.055 120.817 747.772 120.932Z" fill="#1E191A"/>
<path d="M1097.1 24.1114L880.769 53.8979V8.15234H1131.84L990.985 220.46H1118.01V266.177H862.982L1097.1 24.1114Z" fill="#1E191A"/>
<path d="M1149.74 200.209C1149.74 167.542 1178.9 139.138 1244.13 132.916C1183.84 124.763 1158.14 107.45 1158.14 70.2027C1158.14 59.1119 1171.48 3.57202 1298.5 3.57202C1318.28 3.57202 1354.35 5.5309 1384 15.3253V60.7251C1360.26 53.8691 1334.08 50.2682 1310.86 50.2682C1256.49 50.2682 1235.73 67.2643 1235.73 80.9765C1235.73 102.207 1292.52 110.158 1319.2 110.158L1216.38 110.043V155.759L1319.2 155.615C1293.02 155.615 1231.77 164.574 1231.77 189.089C1231.77 204.76 1250.05 224.032 1310.37 224.032C1313.83 224.032 1352.87 223.37 1384 213.575V258.975C1352.87 268.769 1318.25 270.728 1297.52 270.728C1160.1 270.728 1149.74 213.258 1149.74 200.18V200.209Z" fill="#1E191A"/>
<path d="M1354.84 170.48L1319.21 155.644V110.187L1354.84 95.3225V170.48Z" fill="#1E191A"/>
<path d="M283.811 200.209C283.811 167.542 312.974 139.138 378.202 132.916C317.912 124.763 292.213 107.45 292.213 70.2027C292.213 59.1119 305.553 3.57202 432.574 3.57202C452.353 3.57202 488.418 5.5309 518.072 15.3253V60.7251C494.337 53.8691 468.148 50.2682 444.932 50.2682C390.561 50.2682 369.8 67.2643 369.8 80.9765C369.8 102.207 426.597 110.158 453.277 110.158L350.454 110.043V155.759L453.277 155.615C427.087 155.615 365.844 164.574 365.844 189.089C365.844 204.76 384.122 224.032 444.441 224.032C447.906 224.032 486.945 223.37 518.072 213.575V258.975C486.945 268.769 452.324 270.728 431.592 270.728C294.177 270.728 283.811 213.258 283.811 200.18V200.209Z" fill="#1E191A"/>
<path d="M488.909 170.48L453.277 155.644V110.187L488.909 95.3225V170.48Z" fill="#1E191A"/>
</g>
<defs>
<clipPath id="clip0_273_2607">
<rect width="1384" height="276" fill="white"/>
</clipPath>
</defs>
</svg>
