<?xml version="1.0" encoding="UTF-8"?>
<svg id="logo" xmlns="http://www.w3.org/2000/svg" viewBox="0 0 234 219.58">
  <defs>
    <style>
      .cls-1 {
        fill: #e63a3b;
      }

      .cls-2 {
        fill: #fff;
      }

      .cls-3 {
        fill: #3c59e5;
      }
    </style>
  </defs>
  <g>
    <polygon class="cls-3" points="64.71 89.28 125.34 20.96 180 96.12 234 111.58 165.48 174.68 219 209.58 116.8 192.97 15 219.58 49 160.58 0 43.58 64.71 89.28"/>
    <polygon class="cls-2" points="98.87 104.02 80.86 93.36 101.43 85.23 121.07 97.82 98.87 104.02"/>
    <ellipse cx="98.87" cy="94.83" rx="1.71" ry="10.68"/>
    <polygon class="cls-2" points="151.82 85.87 168.04 93.34 150.96 103.59 127.91 97.82 151.82 85.87"/>
    <polygon class="cls-2" points="151.82 85.87 168.04 93.34 150.96 103.59 127.91 97.82 151.82 85.87"/>
    <ellipse cx="150.96" cy="95.69" rx="1.71" ry="10.68"/>
  </g>
  <path class="cls-1" d="M132.18,21.12c0,7.11-3.25,9.24-7.26,9.24s-7.26-2.13-7.26-9.24S124.92,0,124.92,0c0,0,7.26,14.01,7.26,21.12Z"/>
</svg>