<?xml version="1.0" encoding="UTF-8"?>
<svg id="logo" xmlns="http://www.w3.org/2000/svg" viewBox="0 0 115.29 192.97">
  <defs>
    <style>
      .cls-1 {
        fill: #e63a3b;
      }

      .cls-2 {
        fill: #fff;
      }

      .cls-3 {
        fill: #3c59e5;
      }
    </style>
  </defs>
  <g>
    <polygon class="cls-3" points="0 89.28 60.64 20.96 115.29 96.12 63.29 127.58 96.29 173.58 63.29 154.58 52.09 192.97 44.29 159.58 15.29 167.58 53.29 125.58 0 89.28"/>
    <polygon class="cls-2" points="34.16 104.02 16.16 93.36 36.72 85.23 56.36 97.82 34.16 104.02"/>
    <ellipse cx="34.16" cy="94.83" rx="1.71" ry="10.68"/>
    <polygon class="cls-2" points="87.11 85.87 103.34 93.34 86.26 103.59 63.2 97.82 87.11 85.87"/>
    <polygon class="cls-2" points="87.11 85.87 103.34 93.34 86.26 103.59 63.2 97.82 87.11 85.87"/>
    <ellipse cx="86.26" cy="95.69" rx="1.71" ry="10.68"/>
  </g>
  <path class="cls-1" d="M67.47,21.12c0,7.11-3.25,9.24-7.26,9.24s-7.26-2.13-7.26-9.24S60.21,0,60.21,0c0,0,7.26,14.01,7.26,21.12Z"/>
</svg>