<?xml version="1.0" encoding="UTF-8"?>
<svg id="logo" xmlns="http://www.w3.org/2000/svg" viewBox="0 0 161 288.58">
  <defs>
    <style>
      .cls-1 {
        fill: #e63a3b;
      }

      .cls-2 {
        fill: #fff;
      }

      .cls-3 {
        fill: #3c59e5;
      }
    </style>
  </defs>
  <g>
    <polygon class="cls-3" points="19.71 89.28 80.34 20.96 135 96.12 161 49.58 120 186.58 90 286.58 71.8 192.97 44 288.58 29 181.58 0 60.58 19.71 89.28"/>
    <polygon class="cls-2" points="54.87 104.02 36.86 93.36 57.43 85.23 77.07 97.82 54.87 104.02"/>
    <ellipse cx="54.87" cy="94.83" rx="1.71" ry="10.68"/>
    <polygon class="cls-2" points="107.82 85.87 124.04 93.34 106.96 103.59 83.91 97.82 107.82 85.87"/>
    <polygon class="cls-2" points="107.82 85.87 124.04 93.34 106.96 103.59 83.91 97.82 107.82 85.87"/>
    <ellipse cx="106.96" cy="95.69" rx="1.71" ry="10.68"/>
  </g>
  <path class="cls-1" d="M88.18,21.12c0,7.11-3.25,9.24-7.26,9.24s-7.26-2.13-7.26-9.24S80.92,0,80.92,0c0,0,7.26,14.01,7.26,21.12Z"/>
</svg>