<?xml version="1.0" encoding="UTF-8"?>
<svg id="logo" xmlns="http://www.w3.org/2000/svg" viewBox="0 0 286 232.76">
  <defs>
    <style>
      .cls-1 {
        fill: #e63a3b;
      }

      .cls-2 {
        fill: #fff;
      }

      .cls-3 {
        fill: #3c59e5;
      }
    </style>
  </defs>
  <g>
    <polygon class="cls-3" points="82.71 89.28 143.34 20.96 198 96.12 286 150.58 183.48 174.68 168.11 232.76 134.8 192.97 106.67 232.76 96.37 159.31 0 141.58 82.71 89.28"/>
    <polygon class="cls-2" points="116.87 104.02 98.86 93.36 119.43 85.23 139.07 97.82 116.87 104.02"/>
    <ellipse cx="116.87" cy="94.83" rx="1.71" ry="10.68"/>
    <polygon class="cls-2" points="169.82 85.87 186.04 93.34 168.96 103.59 145.91 97.82 169.82 85.87"/>
    <polygon class="cls-2" points="169.82 85.87 186.04 93.34 168.96 103.59 145.91 97.82 169.82 85.87"/>
    <ellipse cx="168.96" cy="95.69" rx="1.71" ry="10.68"/>
  </g>
  <path class="cls-1" d="M150.18,21.12c0,7.11-3.25,9.24-7.26,9.24s-7.26-2.13-7.26-9.24,7.26-21.12,7.26-21.12c0,0,7.26,14.01,7.26,21.12Z"/>
</svg>