<svg width="69" height="138" viewBox="0 0 69 138" fill="none" xmlns="http://www.w3.org/2000/svg">
<g clip-path="url(#clip0_226_1513)">
<path d="M1.00846 52.9327L36.7646 12.4268L69 56.988L66.9831 109.642L60.4369 103.565L51.3726 138L31.7282 114.409L15.1387 138L9.06436 94.4525L0 107.62L1.00846 52.9327Z" fill="#3C59E5"/>
<path d="M21.1545 61.6718L10.5332 55.3517L22.6642 50.5315L34.2468 57.9959L21.1545 61.6718Z" fill="#EFEFEF"/>
<path d="M21.154 62.5551C21.7109 62.5551 22.1624 59.7202 22.1624 56.2231C22.1624 52.7261 21.7109 49.8911 21.154 49.8911C20.597 49.8911 20.1455 52.7261 20.1455 56.2231C20.1455 59.7202 20.597 62.5551 21.154 62.5551Z" fill="black"/>
<path d="M52.381 50.9109L61.9467 55.3397L51.8739 61.4168L38.2803 57.9959L52.381 50.9109Z" fill="white"/>
<path d="M52.381 50.9109L61.9467 55.3397L51.8739 61.4168L38.2803 57.9959L52.381 50.9109Z" fill="#EFEFEF"/>
<path d="M51.8737 63.0652C52.4307 63.0652 52.8822 60.2302 52.8822 56.7331C52.8822 53.2361 52.4307 50.4011 51.8737 50.4011C51.3167 50.4011 50.8652 53.2361 50.8652 56.7331C50.8652 60.2302 51.3167 63.0652 51.8737 63.0652Z" fill="black"/>
<path d="M40.7984 12.5217C40.7984 16.7372 38.8818 18 36.5169 18C34.152 18 32.2354 16.7372 32.2354 12.5217C32.2354 8.30632 36.5169 0 36.5169 0C36.5169 0 40.7984 8.30632 40.7984 12.5217Z" fill="#FF4343"/>
</g>
<defs>
<clipPath id="clip0_226_1513">
<rect width="69" height="138" fill="white"/>
</clipPath>
</defs>
</svg>
